<mxfile host="Electron" modified="2024-07-17T03:24:39.590Z" agent="Mozilla/5.0 (Windows NT 10.0; Win64; x64) AppleWebKit/537.36 (KHTML, like Gecko) draw.io/24.6.4 Chrome/124.0.6367.207 Electron/30.0.6 Safari/537.36" etag="TyY5-h8FugF0CKFfC4Ib" version="24.6.4" type="device">
  <diagram name="PÃ¡gina-1" id="jQoiph2c1nl-3ZJ2nl2n">
    <mxGraphModel dx="880" dy="532" grid="1" gridSize="10" guides="1" tooltips="1" connect="1" arrows="1" fold="1" page="1" pageScale="1" pageWidth="827" pageHeight="1169" math="0" shadow="0">
      <root>
        <mxCell id="0" />
        <mxCell id="1" parent="0" />
        <mxCell id="_NtyxQ0_7e0Htwn68GD2-7" value="" style="rounded=0;whiteSpace=wrap;html=1;fillColor=#eeeeee;strokeColor=#36393D;strokeWidth=2;" parent="1" vertex="1">
          <mxGeometry x="70" y="160" width="70" height="72" as="geometry" />
        </mxCell>
        <mxCell id="_NtyxQ0_7e0Htwn68GD2-2" value="&lt;font style=&quot;font-size: 11px;&quot; face=&quot;Courier New&quot;&gt;2000&lt;/font&gt;" style="rounded=0;whiteSpace=wrap;html=1;fillColor=#fad9d5;strokeColor=#ae4132;" parent="1" vertex="1">
          <mxGeometry x="88" y="185" width="34" height="30" as="geometry" />
        </mxCell>
        <mxCell id="_NtyxQ0_7e0Htwn68GD2-6" value="" style="endArrow=classic;html=1;rounded=0;exitX=1;exitY=0.5;exitDx=0;exitDy=0;strokeColor=#AE4132;entryX=0;entryY=0.5;entryDx=0;entryDy=0;" parent="1" source="_NtyxQ0_7e0Htwn68GD2-2" target="3QNwfG33OlBaRYiH3SOb-1" edge="1">
          <mxGeometry width="50" height="50" relative="1" as="geometry">
            <mxPoint x="260" y="320" as="sourcePoint" />
            <mxPoint x="210" y="200" as="targetPoint" />
          </mxGeometry>
        </mxCell>
        <mxCell id="3QNwfG33OlBaRYiH3SOb-5" value="" style="endArrow=classic;html=1;rounded=0;" parent="1" edge="1">
          <mxGeometry width="50" height="50" relative="1" as="geometry">
            <mxPoint x="250" y="199.57999999999998" as="sourcePoint" />
            <mxPoint x="305" y="199.57999999999998" as="targetPoint" />
          </mxGeometry>
        </mxCell>
        <mxCell id="3QNwfG33OlBaRYiH3SOb-13" value="" style="endArrow=classic;html=1;rounded=0;" parent="1" edge="1">
          <mxGeometry width="50" height="50" relative="1" as="geometry">
            <mxPoint x="380" y="199.76" as="sourcePoint" />
            <mxPoint x="435" y="199.76" as="targetPoint" />
          </mxGeometry>
        </mxCell>
        <mxCell id="pcTX_WsL1KrIylRJnZQG-1" value="&lt;font style=&quot;font-size: 10px;&quot; face=&quot;Courier New&quot;&gt;2000&lt;/font&gt;" style="text;html=1;align=center;verticalAlign=middle;whiteSpace=wrap;rounded=0;" parent="1" vertex="1">
          <mxGeometry x="190" y="157" width="40" height="30" as="geometry" />
        </mxCell>
        <mxCell id="pcTX_WsL1KrIylRJnZQG-3" value="&lt;font size=&quot;1&quot; face=&quot;Courier New&quot;&gt;&lt;b style=&quot;font-size: 14px;&quot;&gt;head&lt;/b&gt;&lt;/font&gt;" style="text;html=1;align=center;verticalAlign=middle;whiteSpace=wrap;rounded=0;" parent="1" vertex="1">
          <mxGeometry x="75" y="165" width="60" height="20" as="geometry" />
        </mxCell>
        <mxCell id="pcTX_WsL1KrIylRJnZQG-6" value="" style="group" parent="1" vertex="1" connectable="0">
          <mxGeometry x="170" y="180" width="80" height="40" as="geometry" />
        </mxCell>
        <mxCell id="3QNwfG33OlBaRYiH3SOb-1" value="&lt;font face=&quot;Courier New&quot;&gt;&lt;span style=&quot;font-size: 14px;&quot;&gt;&lt;b&gt;45&lt;/b&gt;&lt;/span&gt;&lt;/font&gt;" style="rounded=0;whiteSpace=wrap;html=1;fillColor=#d5e8d4;strokeColor=#000000;" parent="pcTX_WsL1KrIylRJnZQG-6" vertex="1">
          <mxGeometry width="40" height="40" as="geometry" />
        </mxCell>
        <mxCell id="3QNwfG33OlBaRYiH3SOb-2" value="" style="rounded=0;whiteSpace=wrap;html=1;fillColor=#fff2cc;strokeColor=#000000;" parent="pcTX_WsL1KrIylRJnZQG-6" vertex="1">
          <mxGeometry x="40" width="40" height="40" as="geometry" />
        </mxCell>
        <mxCell id="pcTX_WsL1KrIylRJnZQG-5" value="&lt;font style=&quot;font-size: 10px;&quot; face=&quot;Courier New&quot;&gt;2800&lt;/font&gt;" style="text;html=1;align=center;verticalAlign=middle;whiteSpace=wrap;rounded=0;" parent="pcTX_WsL1KrIylRJnZQG-6" vertex="1">
          <mxGeometry x="44" y="5" width="31" height="30" as="geometry" />
        </mxCell>
        <mxCell id="pcTX_WsL1KrIylRJnZQG-7" value="" style="group" parent="1" vertex="1" connectable="0">
          <mxGeometry x="306" y="180" width="80" height="40" as="geometry" />
        </mxCell>
        <mxCell id="pcTX_WsL1KrIylRJnZQG-8" value="&lt;font face=&quot;Courier New&quot;&gt;&lt;span style=&quot;font-size: 14px;&quot;&gt;&lt;b&gt;65&lt;/b&gt;&lt;/span&gt;&lt;/font&gt;" style="rounded=0;whiteSpace=wrap;html=1;fillColor=#d5e8d4;strokeColor=#000000;" parent="pcTX_WsL1KrIylRJnZQG-7" vertex="1">
          <mxGeometry width="40" height="40" as="geometry" />
        </mxCell>
        <mxCell id="pcTX_WsL1KrIylRJnZQG-9" value="" style="rounded=0;whiteSpace=wrap;html=1;fillColor=#fff2cc;strokeColor=#000000;" parent="pcTX_WsL1KrIylRJnZQG-7" vertex="1">
          <mxGeometry x="40" width="40" height="40" as="geometry" />
        </mxCell>
        <mxCell id="pcTX_WsL1KrIylRJnZQG-10" value="&lt;font style=&quot;font-size: 10px;&quot; face=&quot;Courier New&quot;&gt;1500&lt;/font&gt;" style="text;html=1;align=center;verticalAlign=middle;whiteSpace=wrap;rounded=0;" parent="pcTX_WsL1KrIylRJnZQG-7" vertex="1">
          <mxGeometry x="44" y="5" width="31" height="30" as="geometry" />
        </mxCell>
        <mxCell id="pcTX_WsL1KrIylRJnZQG-11" value="" style="group" parent="1" vertex="1" connectable="0">
          <mxGeometry x="436" y="180" width="80" height="40" as="geometry" />
        </mxCell>
        <mxCell id="pcTX_WsL1KrIylRJnZQG-12" value="&lt;font face=&quot;Courier New&quot;&gt;&lt;span style=&quot;font-size: 14px;&quot;&gt;&lt;b&gt;34&lt;/b&gt;&lt;/span&gt;&lt;/font&gt;" style="rounded=0;whiteSpace=wrap;html=1;fillColor=#d5e8d4;strokeColor=#000000;" parent="pcTX_WsL1KrIylRJnZQG-11" vertex="1">
          <mxGeometry width="40" height="40" as="geometry" />
        </mxCell>
        <mxCell id="pcTX_WsL1KrIylRJnZQG-13" value="" style="rounded=0;whiteSpace=wrap;html=1;fillColor=#fff2cc;strokeColor=#000000;" parent="pcTX_WsL1KrIylRJnZQG-11" vertex="1">
          <mxGeometry x="40" width="40" height="40" as="geometry" />
        </mxCell>
        <mxCell id="pcTX_WsL1KrIylRJnZQG-14" value="&lt;font style=&quot;font-size: 10px;&quot; face=&quot;Courier New&quot;&gt;3600&lt;/font&gt;" style="text;html=1;align=center;verticalAlign=middle;whiteSpace=wrap;rounded=0;" parent="pcTX_WsL1KrIylRJnZQG-11" vertex="1">
          <mxGeometry x="44" y="5" width="31" height="30" as="geometry" />
        </mxCell>
        <mxCell id="pcTX_WsL1KrIylRJnZQG-15" value="" style="endArrow=classic;html=1;rounded=0;" parent="1" edge="1">
          <mxGeometry width="50" height="50" relative="1" as="geometry">
            <mxPoint x="516" y="199.76" as="sourcePoint" />
            <mxPoint x="571" y="199.76" as="targetPoint" />
          </mxGeometry>
        </mxCell>
        <mxCell id="pcTX_WsL1KrIylRJnZQG-16" value="" style="group" parent="1" vertex="1" connectable="0">
          <mxGeometry x="571" y="181" width="80" height="40" as="geometry" />
        </mxCell>
        <mxCell id="pcTX_WsL1KrIylRJnZQG-17" value="&lt;font face=&quot;Courier New&quot;&gt;&lt;span style=&quot;font-size: 14px;&quot;&gt;&lt;b&gt;76&lt;/b&gt;&lt;/span&gt;&lt;/font&gt;" style="rounded=0;whiteSpace=wrap;html=1;fillColor=#d5e8d4;strokeColor=#000000;" parent="pcTX_WsL1KrIylRJnZQG-16" vertex="1">
          <mxGeometry width="40" height="40" as="geometry" />
        </mxCell>
        <mxCell id="pcTX_WsL1KrIylRJnZQG-18" value="" style="rounded=0;whiteSpace=wrap;html=1;fillColor=#fff2cc;strokeColor=#000000;" parent="pcTX_WsL1KrIylRJnZQG-16" vertex="1">
          <mxGeometry x="40" width="40" height="40" as="geometry" />
        </mxCell>
        <mxCell id="pcTX_WsL1KrIylRJnZQG-20" value="&lt;font style=&quot;font-size: 10px;&quot; face=&quot;Courier New&quot;&gt;2800&lt;/font&gt;" style="text;html=1;align=center;verticalAlign=middle;whiteSpace=wrap;rounded=0;" parent="1" vertex="1">
          <mxGeometry x="326" y="157" width="40" height="30" as="geometry" />
        </mxCell>
        <mxCell id="pcTX_WsL1KrIylRJnZQG-21" value="&lt;font style=&quot;font-size: 10px;&quot; face=&quot;Courier New&quot;&gt;1500&lt;/font&gt;" style="text;html=1;align=center;verticalAlign=middle;whiteSpace=wrap;rounded=0;" parent="1" vertex="1">
          <mxGeometry x="456" y="157" width="40" height="30" as="geometry" />
        </mxCell>
        <mxCell id="pcTX_WsL1KrIylRJnZQG-22" value="&lt;font style=&quot;font-size: 10px;&quot; face=&quot;Courier New&quot;&gt;3600&lt;/font&gt;" style="text;html=1;align=center;verticalAlign=middle;whiteSpace=wrap;rounded=0;" parent="1" vertex="1">
          <mxGeometry x="591" y="165.5" width="40" height="13" as="geometry" />
        </mxCell>
        <mxCell id="pcTX_WsL1KrIylRJnZQG-23" value="" style="endArrow=none;html=1;rounded=0;entryX=1;entryY=1;entryDx=0;entryDy=0;" parent="1" edge="1">
          <mxGeometry width="50" height="50" relative="1" as="geometry">
            <mxPoint x="611" y="181" as="sourcePoint" />
            <mxPoint x="651" y="221" as="targetPoint" />
          </mxGeometry>
        </mxCell>
      </root>
    </mxGraphModel>
  </diagram>
</mxfile>
